<svg width="235" height="235" viewBox="0 0 235 235" fill="none" xmlns="http://www.w3.org/2000/svg">
<path d="M111.021 152.8C111.597 152.8 112.065 152.992 112.425 153.376C112.785 153.76 112.965 154.24 112.965 154.816V175.804C112.965 176.428 112.749 176.956 112.317 177.388C111.909 177.796 111.393 178 110.769 178C110.457 178 110.133 177.952 109.797 177.856C109.485 177.736 109.245 177.58 109.077 177.388L94.9295 159.424L95.8655 158.848V175.984C95.8655 176.56 95.6735 177.04 95.2895 177.424C94.9295 177.808 94.4495 178 93.8495 178C93.2735 178 92.8055 177.808 92.4455 177.424C92.0855 177.04 91.9055 176.56 91.9055 175.984V154.996C91.9055 154.372 92.1095 153.856 92.5175 153.448C92.9495 153.016 93.4775 152.8 94.1015 152.8C94.4375 152.8 94.7855 152.872 95.1455 153.016C95.5055 153.136 95.7695 153.328 95.9375 153.592L109.653 171.088L109.041 171.52V154.816C109.041 154.24 109.221 153.76 109.581 153.376C109.941 152.992 110.421 152.8 111.021 152.8ZM143.362 165.4C143.362 167.2 143.062 168.88 142.462 170.44C141.862 172 141.01 173.38 139.906 174.58C138.826 175.756 137.53 176.68 136.018 177.352C134.53 178.024 132.898 178.36 131.122 178.36C129.346 178.36 127.714 178.024 126.226 177.352C124.738 176.68 123.442 175.756 122.338 174.58C121.258 173.38 120.418 172 119.818 170.44C119.218 168.88 118.918 167.2 118.918 165.4C118.918 163.6 119.218 161.92 119.818 160.36C120.418 158.8 121.258 157.432 122.338 156.256C123.442 155.056 124.738 154.12 126.226 153.448C127.714 152.776 129.346 152.44 131.122 152.44C132.898 152.44 134.53 152.776 136.018 153.448C137.53 154.12 138.826 155.056 139.906 156.256C141.01 157.432 141.862 158.8 142.462 160.36C143.062 161.92 143.362 163.6 143.362 165.4ZM138.682 165.4C138.682 163.792 138.358 162.34 137.71 161.044C137.062 159.724 136.174 158.68 135.046 157.912C133.918 157.144 132.61 156.76 131.122 156.76C129.634 156.76 128.326 157.144 127.198 157.912C126.07 158.68 125.182 159.712 124.534 161.008C123.91 162.304 123.598 163.768 123.598 165.4C123.598 167.008 123.91 168.472 124.534 169.792C125.182 171.088 126.07 172.12 127.198 172.888C128.326 173.656 129.634 174.04 131.122 174.04C132.61 174.04 133.918 173.656 135.046 172.888C136.174 172.12 137.062 171.088 137.71 169.792C138.358 168.472 138.682 167.008 138.682 165.4Z" fill="white"/>
<circle cx="117.5" cy="117.5" r="115" stroke="white" stroke-width="5"/>
<path d="M96.0952 65.5217L117.5 87.2765L138.794 65.6344C139.264 65.1256 139.831 64.7186 140.46 64.4377C141.089 64.1568 141.767 64.008 142.454 64C143.925 64 145.335 64.5938 146.375 65.6507C147.415 66.7077 147.999 68.1412 147.999 69.636C148.012 70.3269 147.886 71.0133 147.628 71.653C147.371 72.2926 146.988 72.872 146.502 73.3557L124.931 94.9978L146.502 116.922C147.416 117.83 147.952 119.061 147.999 120.36C147.999 121.854 147.415 123.288 146.375 124.345C145.335 125.402 143.925 125.996 142.454 125.996C141.747 126.025 141.042 125.905 140.383 125.643C139.725 125.382 139.127 124.983 138.628 124.474L117.5 102.719L96.1506 124.417C95.6821 124.909 95.1223 125.302 94.5037 125.573C93.885 125.844 93.2197 125.987 92.5462 125.996C91.0755 125.996 89.665 125.402 88.6251 124.345C87.5851 123.288 87.0009 121.854 87.0009 120.36C86.988 119.669 87.1141 118.982 87.3716 118.343C87.629 117.703 88.0124 117.124 88.4981 116.64L110.069 94.9978L88.4981 73.0739C87.5842 72.1651 87.0483 70.9346 87.0009 69.636C87.0009 68.1412 87.5851 66.7077 88.6251 65.6507C89.665 64.5938 91.0755 64 92.5462 64C93.8771 64.0169 95.1525 64.5636 96.0952 65.5217Z" fill="white"/>
</svg>
