<svg width="235" height="235" viewBox="0 0 235 235" fill="none" xmlns="http://www.w3.org/2000/svg">
<path d="M102.192 152.692C102.744 152.692 103.236 152.908 103.668 153.34C104.124 153.748 104.352 154.276 104.352 154.924C104.352 155.14 104.316 155.368 104.244 155.608C104.196 155.824 104.1 156.04 103.956 156.256L95.7843 167.956L96.4323 165.472V175.804C96.4323 176.428 96.2163 176.956 95.7843 177.388C95.3763 177.796 94.8963 178 94.3443 178C93.7443 178 93.2283 177.796 92.7963 177.388C92.3883 176.956 92.1843 176.428 92.1843 175.804V165.76L92.4723 166.912L84.6963 156.58C84.4563 156.268 84.2883 155.968 84.1923 155.68C84.0963 155.392 84.0483 155.128 84.0483 154.888C84.0483 154.24 84.3003 153.712 84.8043 153.304C85.3083 152.896 85.8243 152.692 86.3523 152.692C87.0243 152.692 87.6123 153.028 88.1163 153.7L95.0283 163.24L94.0203 163.096L100.392 153.772C100.896 153.052 101.496 152.692 102.192 152.692ZM111.578 152.8H123.638C124.262 152.8 124.778 153.004 125.186 153.412C125.618 153.796 125.834 154.3 125.834 154.924C125.834 155.524 125.618 156.016 125.186 156.4C124.778 156.76 124.262 156.94 123.638 156.94H113.558L113.882 156.328V163.348L113.594 163.06H122.018C122.642 163.06 123.158 163.264 123.566 163.672C123.998 164.056 124.214 164.56 124.214 165.184C124.214 165.784 123.998 166.276 123.566 166.66C123.158 167.02 122.642 167.2 122.018 167.2H113.702L113.882 166.912V174.184L113.594 173.86H123.638C124.262 173.86 124.778 174.076 125.186 174.508C125.618 174.916 125.834 175.396 125.834 175.948C125.834 176.548 125.618 177.04 125.186 177.424C124.778 177.808 124.262 178 123.638 178H111.578C110.954 178 110.426 177.796 109.994 177.388C109.586 176.956 109.382 176.428 109.382 175.804V154.996C109.382 154.372 109.586 153.856 109.994 153.448C110.426 153.016 110.954 152.8 111.578 152.8ZM139.883 178.36C138.203 178.36 136.691 178.156 135.347 177.748C134.003 177.316 132.719 176.572 131.495 175.516C131.183 175.252 130.943 174.952 130.775 174.616C130.607 174.28 130.523 173.944 130.523 173.608C130.523 173.056 130.715 172.576 131.099 172.168C131.507 171.736 132.011 171.52 132.611 171.52C133.067 171.52 133.475 171.664 133.835 171.952C134.747 172.696 135.647 173.26 136.535 173.644C137.447 174.028 138.563 174.22 139.883 174.22C140.771 174.22 141.587 174.088 142.331 173.824C143.075 173.536 143.675 173.164 144.131 172.708C144.587 172.228 144.815 171.688 144.815 171.088C144.815 170.368 144.599 169.756 144.167 169.252C143.735 168.748 143.075 168.328 142.187 167.992C141.299 167.632 140.171 167.356 138.803 167.164C137.507 166.972 136.367 166.684 135.383 166.3C134.399 165.892 133.571 165.388 132.899 164.788C132.251 164.164 131.759 163.444 131.423 162.628C131.087 161.788 130.919 160.852 130.919 159.82C130.919 158.26 131.315 156.928 132.107 155.824C132.923 154.72 134.015 153.88 135.383 153.304C136.751 152.728 138.263 152.44 139.919 152.44C141.479 152.44 142.919 152.68 144.239 153.16C145.583 153.616 146.675 154.204 147.515 154.924C148.211 155.476 148.559 156.112 148.559 156.832C148.559 157.36 148.355 157.84 147.947 158.272C147.539 158.704 147.059 158.92 146.507 158.92C146.147 158.92 145.823 158.812 145.535 158.596C145.151 158.26 144.635 157.948 143.987 157.66C143.339 157.348 142.655 157.096 141.935 156.904C141.215 156.688 140.543 156.58 139.919 156.58C138.887 156.58 138.011 156.712 137.291 156.976C136.595 157.24 136.067 157.6 135.707 158.056C135.347 158.512 135.167 159.04 135.167 159.64C135.167 160.36 135.371 160.96 135.779 161.44C136.211 161.896 136.823 162.268 137.615 162.556C138.407 162.82 139.355 163.06 140.459 163.276C141.899 163.54 143.159 163.852 144.239 164.212C145.343 164.572 146.255 165.04 146.975 165.616C147.695 166.168 148.235 166.876 148.595 167.74C148.955 168.58 149.135 169.612 149.135 170.836C149.135 172.396 148.703 173.74 147.839 174.868C146.975 175.996 145.835 176.86 144.419 177.46C143.027 178.06 141.515 178.36 139.883 178.36Z" fill="white"/>
<circle cx="117.5" cy="117.5" r="115" stroke="white" stroke-width="5"/>
<path fill-rule="evenodd" clip-rule="evenodd" d="M152.002 70.7403C153.033 71.7717 153.612 73.1704 153.612 74.6288C153.612 76.0872 153.033 77.4859 152.002 78.5173L110.778 119.742C110.233 120.287 109.586 120.719 108.874 121.014C108.162 121.309 107.399 121.46 106.629 121.46C105.858 121.46 105.095 121.309 104.383 121.014C103.672 120.719 103.025 120.287 102.48 119.742L81.9979 99.2633C81.4726 98.756 81.0536 98.1491 80.7654 97.4781C80.4771 96.807 80.3254 96.0853 80.3191 95.355C80.3127 94.6248 80.4519 93.9005 80.7284 93.2246C81.005 92.5487 81.4134 91.9346 81.9298 91.4182C82.4462 90.9017 83.0603 90.4934 83.7362 90.2168C84.4121 89.9403 85.1364 89.8011 85.8666 89.8075C86.5969 89.8138 87.3186 89.9655 87.9897 90.2538C88.6607 90.542 89.2676 90.961 89.7749 91.4863L106.627 108.338L144.221 70.7403C144.732 70.2292 145.339 69.8238 146.006 69.5472C146.674 69.2706 147.389 69.1282 148.112 69.1282C148.834 69.1282 149.55 69.2706 150.217 69.5472C150.885 69.8238 151.491 70.2292 152.002 70.7403Z" fill="white"/>
</svg>
