<svg width="48" height="46" viewBox="0 0 48 46" fill="none" xmlns="http://www.w3.org/2000/svg">
<path d="M45 22.5821H16.9508M7.05016 22.5821H3M7.05016 22.5821C7.05016 21.2662 7.57159 20.0042 8.49975 19.0737C9.4279 18.1433 10.6867 17.6205 11.9994 17.6205C13.312 17.6205 14.5708 18.1433 15.499 19.0737C16.4271 20.0042 16.9485 21.2662 16.9485 22.5821C16.9485 23.898 16.4271 25.16 15.499 26.0905C14.5708 27.021 13.312 27.5437 11.9994 27.5437C10.6867 27.5437 9.4279 27.021 8.49975 26.0905C7.57159 25.16 7.05016 23.898 7.05016 22.5821ZM45 37.6194H31.9505M31.9505 37.6194C31.9505 38.9356 31.4278 40.199 30.4994 41.1297C29.5711 42.0604 28.3119 42.5833 26.999 42.5833C25.6864 42.5833 24.4276 42.0582 23.4994 41.1278C22.5713 40.1973 22.0498 38.9353 22.0498 37.6194M31.9505 37.6194C31.9505 36.3032 31.4278 35.042 30.4994 34.1113C29.5711 33.1806 28.3119 32.6578 26.999 32.6578C25.6864 32.6578 24.4276 33.1805 23.4994 34.111C22.5713 35.0415 22.0498 36.3035 22.0498 37.6194M22.0498 37.6194H3M45 7.54485H37.9508M28.0502 7.54485H3M28.0502 7.54485C28.0502 6.22895 28.5716 4.96695 29.4997 4.03647C30.4279 3.10599 31.6867 2.58325 32.9994 2.58325C33.6493 2.58325 34.2929 2.71159 34.8933 2.96093C35.4938 3.21027 36.0394 3.57574 36.499 4.03647C36.9585 4.4972 37.3231 5.04416 37.5718 5.64613C37.8205 6.24809 37.9485 6.89328 37.9485 7.54485C37.9485 8.19641 37.8205 8.8416 37.5718 9.44356C37.3231 10.0455 36.9585 10.5925 36.499 11.0532C36.0394 11.5139 35.4938 11.8794 34.8933 12.1288C34.2929 12.3781 33.6493 12.5064 32.9994 12.5064C31.6867 12.5064 30.4279 11.9837 29.4997 11.0532C28.5716 10.1227 28.0502 8.86074 28.0502 7.54485Z" stroke="black" stroke-width="5" stroke-miterlimit="10" stroke-linecap="round"/>
</svg>
