<svg width="57" height="49" viewBox="0 0 57 49" fill="none" xmlns="http://www.w3.org/2000/svg">
<g clip-path="url(#clip0_99_346)">
<path d="M39.8153 0.0552472C51.7946 -0.960309 60.4427 12.2212 55.6608 23.4384C52.3629 31.1713 40.8425 41.7184 34.0863 46.5659C33.5404 46.9574 30.6726 49.0253 30.2224 48.8825L27.0649 38.4967L31.5995 33.1978L27.5017 24.8178L33.6028 18.5932L28.1657 12.1751L33.8858 1.86759C35.7197 0.941844 37.7608 0.232566 39.8153 0.0598529V0.0552472Z" fill="black"/>
<path d="M27.0383 49.0002C24.6028 48.0238 22.3366 46.2091 20.262 44.5626C14.1008 39.6667 3.21773 29.6563 0.773279 22.0407C-1.67117 14.4252 1.6334 5.87245 8.19799 2.1142C14.1052 -1.26638 20.6832 -0.365964 26.0289 3.66172L20.9305 13.055L27.0205 18.7039L21.9399 25.6977L27.0294 33.2165L23.4931 39.3996L27.0405 49.0025L27.0383 49.0002Z" fill="black"/>
</g>
<defs>
<clipPath id="clip0_99_346">
<rect width="57" height="49" fill="white"/>
</clipPath>
</defs>
</svg>
