<?xml version="1.0" encoding="UTF-8"?>
<svg id="Layer_1" xmlns="http://www.w3.org/2000/svg" xmlns:xlink="http://www.w3.org/1999/xlink" version="1.1" viewBox="-20 -20 400 440">
  <!-- Generator: Adobe Illustrator 29.5.1, SVG Export Plug-In . SVG Version: 2.1.0 Build 141)  -->
  <defs>
    <style>
      .st0 {
        fill: none;
      }

      .st1 {
        clip-path: url(#clippath);
      }
    </style>
    <clipPath id="clippath">
      <rect class="st0" x="0" y="0" width="1190.66" height="396.11"/>
    </clipPath>
  </defs>
  <g class="st1">
    <path fill="white" d="M23.21,264.97c8.4,8.41,35.06,32.1,69.96,33.38,27.03.99,53.42-11.45,78.94-36.97,30.35-30.35,62.84-45.05,96.46-43.74,29.24,1.14,53.15,14.26,68.85,25.95V23.21H23.21v241.77ZM96.2,321.61c-1.38,0-2.76-.03-4.14-.08-52.48-2.05-87.8-42.68-89.27-44.41l-2.78-3.25V0h360.62v301.02l-20.43-23.9c-.28-.32-30.47-34.75-72.74-36.3-26.92-.98-53.42,11.45-78.94,36.97-29.1,29.1-60.13,43.82-92.31,43.82"/>
    <path fill="white" d="M360.62,338.85c-1.36-1.4-2.18-2.31-2.22-2.36-1.48-1.73-36.79-42.36-89.28-44.41-33.52-1.31-66.1,13.4-96.45,43.75-25.55,25.55-52.12,37.97-78.99,37.01-42.18-1.55-72.27-35.86-72.55-36.18-.67-.78-8.25-9.45-21.11-18.94v30.41c2.2,2.16,3.42,3.54,3.47,3.6,1.47,1.73,36.69,42.24,89.09,44.29,33.5,1.32,66.13-13.41,96.51-43.79,25.52-25.52,51.96-37.94,78.95-36.97,42.26,1.55,72.45,35.98,72.73,36.3.65.76,7.73,8.92,19.87,18.05v-30.77Z"/>
  </g>
</svg>