<svg id="Layer_1" xmlns="http://www.w3.org/2000/svg" xmlns:xlink="http://www.w3.org/1999/xlink" version="1.1" viewBox="0 0 1190.66 396.1">
  <!-- Generator: Adobe Illustrator 29.5.1, SVG Export Plug-In . SVG Version: 2.1.0 Build 141)  -->
  <defs>
    <style>
      .st0 {
        fill: none;
      }

      .st1 {
        clip-path: url(#clippath);
      }
    </style>
    <clipPath id="clippath">
      <rect class="st0" x="0" y="0" width="1190.66" height="396.11"/>
    </clipPath>
  </defs>
  <g class="st1">
    <path fill="currentColor" d="M23.21,264.97c8.4,8.41,35.06,32.1,69.96,33.38,27.03.99,53.42-11.45,78.94-36.97,30.35-30.35,62.84-45.05,96.46-43.74,29.24,1.14,53.15,14.26,68.85,25.95V23.21H23.21v241.77ZM96.2,321.61c-1.38,0-2.76-.03-4.14-.08-52.48-2.05-87.8-42.68-89.27-44.41l-2.78-3.25V0h360.62v301.02l-20.43-23.9c-.28-.32-30.47-34.75-72.74-36.3-26.92-.98-53.42,11.45-78.94,36.97-29.1,29.1-60.13,43.82-92.31,43.82"/>
    <path fill="currentColor" d="M360.62,338.85c-1.36-1.4-2.18-2.31-2.22-2.36-1.48-1.73-36.79-42.36-89.28-44.41-33.52-1.31-66.1,13.4-96.45,43.75-25.55,25.55-52.12,37.97-78.99,37.01-42.18-1.55-72.27-35.86-72.55-36.18-.67-.78-8.25-9.45-21.11-18.94v30.41c2.2,2.16,3.42,3.54,3.47,3.6,1.47,1.73,36.69,42.24,89.09,44.29,33.5,1.32,66.13-13.41,96.51-43.79,25.52-25.52,51.96-37.94,78.95-36.97,42.26,1.55,72.45,35.98,72.73,36.3.65.76,7.73,8.92,19.87,18.05v-30.77Z"/>
    <path fill="currentColor" d="M1127.91,241.22c-4.08-2.72-7.27-6.43-9.56-11.14-2.29-4.7-3.43-9.96-3.43-15.78s1.15-11.26,3.43-15.97c2.29-4.7,5.48-8.41,9.56-11.14,4.08-2.72,8.79-4.08,14.11-4.08s10.21,1.36,14.29,4.08c4.08,2.72,7.27,6.44,9.56,11.14,2.29,4.71,3.43,10.03,3.43,15.97s-1.14,11.08-3.43,15.78c-2.29,4.71-5.48,8.42-9.56,11.14-4.08,2.72-8.85,4.08-14.29,4.08s-10.03-1.36-14.11-4.08M1171.54,165.93c-2.1,2.17-3.16,4.86-3.16,8.08v13.55l6.68-2.41c0-1.73-.9-3.87-2.69-6.4-1.79-2.53-4.33-5.04-7.61-7.52-3.28-2.47-7.15-4.52-11.6-6.13-4.46-1.61-9.34-2.41-14.67-2.41-8.29,0-15.84,2.2-22.65,6.59-6.8,4.4-12.22,10.46-16.24,18.19-4.02,7.74-6.03,16.68-6.03,26.83s2.01,18.91,6.03,26.64c4.02,7.74,9.5,13.8,16.43,18.19,6.93,4.4,14.67,6.59,23.21,6.59,4.71,0,9.07-.78,13.09-2.32,4.02-1.55,7.52-3.43,10.49-5.66,2.97-2.23,5.32-4.48,7.05-6.78,1.74-2.29,2.6-4.24,2.6-5.85l-4.08-1.67v9.1c0,3.22,1.05,5.91,3.16,8.08,2.11,2.17,4.77,3.25,7.98,3.25s5.88-1.08,7.98-3.25c2.11-2.16,3.16-4.85,3.16-8.08v-78.53c0-3.34-1.05-6.06-3.16-8.17-2.1-2.1-4.76-3.16-7.98-3.16s-5.88,1.09-7.98,3.25M1028.44,164.64c-3.59,1.3-6.81,3-9.65,5.11-2.85,2.11-5.32,4.36-7.43,6.78-2.11,2.41-3.71,4.67-4.83,6.78l2.78.56v-7.98c0-3.22-1.05-5.91-3.16-8.08-2.11-2.16-4.77-3.25-7.98-3.25s-5.88,1.09-7.98,3.25c-2.11,2.17-3.16,4.86-3.16,8.08v76.67c0,3.22,1.05,5.91,3.16,8.08,2.1,2.17,4.76,3.25,7.98,3.25s5.88-1.08,7.98-3.25c2.1-2.16,3.16-4.85,3.16-8.08v-47.53c0-4.08.9-7.76,2.69-11.05,1.79-3.28,4.39-5.91,7.8-7.89,3.4-1.98,7.58-2.97,12.53-2.97s8.97.99,11.7,2.97c2.72,1.98,4.61,4.61,5.66,7.89,1.05,3.28,1.58,6.96,1.58,11.05v47.53c0,3.22,1.05,5.91,3.16,8.08,2.1,2.17,4.76,3.25,7.98,3.25s5.88-1.08,7.98-3.25c2.1-2.16,3.16-4.85,3.16-8.08v-47.53c0-7.8-.9-14.88-2.69-21.26-1.8-6.37-5.08-11.48-9.84-15.32-4.77-3.83-11.73-5.76-20.89-5.76-4.21,0-8.11.65-11.7,1.95M960.48,150.53c1.86-1.3,2.78-3.74,2.78-7.33v-3.53c0-3.46-.87-5.88-2.6-7.24-1.74-1.36-4.77-2.04-9.1-2.04-3.96,0-6.9.65-8.82,1.95-1.92,1.3-2.88,3.75-2.88,7.33v3.53c0,3.47.86,5.88,2.6,7.24,1.73,1.36,4.7,2.04,8.91,2.04s7.24-.65,9.1-1.95M962.71,175.87c0-3.22-1.05-5.91-3.16-8.08-2.11-2.16-4.77-3.25-7.98-3.25s-5.88,1.09-7.98,3.25c-2.11,2.17-3.16,4.86-3.16,8.08v76.67c0,3.22,1.05,5.91,3.16,8.08,2.1,2.17,4.76,3.25,7.98,3.25s5.88-1.08,7.98-3.25c2.1-2.16,3.16-4.85,3.16-8.08v-76.67ZM810.21,164.64c-3.47,1.3-6.62,3-9.47,5.11-2.85,2.11-5.26,4.36-7.24,6.78-1.98,2.41-3.53,4.67-4.64,6.78l2.78.56v-7.98c0-3.22-1.05-5.91-3.16-8.08-2.11-2.16-4.77-3.25-7.98-3.25s-5.88,1.09-7.98,3.25c-2.11,2.17-3.16,4.86-3.16,8.08v76.67c0,3.22,1.05,5.91,3.16,8.08,2.1,2.17,4.76,3.25,7.98,3.25s5.88-1.08,7.98-3.25c2.1-2.16,3.16-4.85,3.16-8.08v-47.53c0-4.08.84-7.76,2.51-11.05,1.67-3.28,4.18-5.91,7.52-7.89,3.34-1.98,7.36-2.97,12.07-2.97s8.54.99,11.14,2.97c2.6,1.98,4.39,4.61,5.38,7.89.99,3.28,1.49,6.96,1.49,11.05v47.53c0,3.22,1.05,5.91,3.16,8.08,2.1,2.17,4.76,3.25,7.98,3.25s5.88-1.08,7.98-3.25c2.1-2.16,3.16-4.85,3.16-8.08v-47.53c0-4.08.84-7.76,2.51-11.05,1.67-3.28,4.18-5.91,7.52-7.89,3.34-1.98,7.36-2.97,12.07-2.97s8.54.99,11.14,2.97c2.6,1.98,4.39,4.61,5.38,7.89.99,3.28,1.49,6.96,1.49,11.05v47.53c0,3.22,1.05,5.91,3.16,8.08,2.1,2.17,4.76,3.25,7.98,3.25s5.88-1.08,7.98-3.25c2.1-2.16,3.16-4.85,3.16-8.08v-47.53c0-7.8-.87-14.88-2.6-21.26-1.74-6.37-4.92-11.48-9.56-15.32-4.64-3.83-11.42-5.76-20.33-5.76-5.45,0-10.37,1.15-14.76,3.43-4.4,2.29-8.14,5.08-11.23,8.35-3.1,3.28-5.38,6.34-6.87,9.19l-1.49,2.97,3.16,1.67c-1.49-7.55-4.58-13.71-9.28-18.47-4.71-4.76-12.01-7.15-21.91-7.15-4.08,0-7.86.65-11.32,1.95M725.69,167.79c-2.11,2.17-3.16,4.86-3.16,8.08v47.15c0,7.55-1.67,13.15-5.01,16.8-3.34,3.65-8.42,5.48-15.22,5.48s-11.7-1.82-15.04-5.48c-3.34-3.65-5.01-9.25-5.01-16.8v-47.15c0-3.22-1.05-5.91-3.16-8.08-2.11-2.16-4.77-3.25-7.98-3.25s-5.88,1.09-7.98,3.25c-2.11,2.17-3.16,4.86-3.16,8.08v47.15c0,13.12,3.62,23.52,10.86,31.19,7.24,7.68,17.73,11.51,31.47,11.51s24.26-3.83,31.56-11.51c7.3-7.67,10.95-18.07,10.95-31.19v-47.15c0-3.22-1.05-5.91-3.16-8.08-2.11-2.16-4.77-3.25-7.98-3.25s-5.88,1.09-7.98,3.25M581.61,242.14l4.08,3.16v-100.06c0-3.22-1.15-5.91-3.43-8.08-2.29-2.16-4.92-3.25-7.89-3.25-3.47,0-6.31,1.09-8.54,3.25-2.23,2.17-3.34,4.86-3.34,8.08v107.31c0,3.22,1.08,5.91,3.25,8.08,2.16,2.17,4.85,3.25,8.08,3.25h60.34c3.22,0,5.91-1.02,8.08-3.06,2.16-2.04,3.25-4.61,3.25-7.7s-1.09-5.85-3.25-7.89c-2.17-2.04-4.86-3.06-8.08-3.06h-52.54ZM534.03,150.53c1.86-1.3,2.78-3.74,2.78-7.33v-3.53c0-3.46-.87-5.88-2.6-7.24-1.74-1.36-4.77-2.04-9.1-2.04-3.96,0-6.9.65-8.82,1.95-1.92,1.3-2.88,3.75-2.88,7.33v3.53c0,3.47.86,5.88,2.6,7.24,1.73,1.36,4.7,2.04,8.91,2.04s7.24-.65,9.1-1.95M536.26,175.87c0-3.22-1.05-5.91-3.16-8.08-2.11-2.16-4.77-3.25-7.98-3.25s-5.88,1.09-7.98,3.25c-2.11,2.17-3.16,4.86-3.16,8.08v76.67c0,3.22,1.05,5.91,3.16,8.08,2.1,2.17,4.76,3.25,7.98,3.25s5.88-1.08,7.98-3.25c2.1-2.16,3.16-4.85,3.16-8.08v-76.67Z"/>
  </g>
</svg>