<?xml version="1.0" encoding="UTF-8"?>
<svg id="Layer_1" xmlns="http://www.w3.org/2000/svg" xmlns:xlink="http://www.w3.org/1999/xlink" version="1.1" viewBox="0 0 243.07 86.98">
  <!-- Generator: Adobe Illustrator 29.5.1, SVG Export Plug-In . SVG Version: 2.1.0 Build 141)  -->
  <defs>
    <style>
      .st0, .st1 {
        fill: none;
      }

      .st2 {
        fill: #231f20;
      }

      .st1 {
        stroke: #231f20;
        stroke-width: 5px;
      }

      .st3 {
        clip-path: url(#clippath);
      }
    </style>
    <clipPath id="clippath">
      <rect class="st0" x="-7.96" y="-6.96" width="250.2" height="93.33"/>
    </clipPath>
  </defs>
  <g class="st3">
    <path class="st2" d="M228.72,47.62c-.88-.59-1.57-1.39-2.06-2.4-.49-1.01-.74-2.15-.74-3.4s.25-2.43.74-3.44c.49-1.01,1.18-1.81,2.06-2.4.88-.59,1.89-.88,3.04-.88s2.2.29,3.08.88c.88.59,1.57,1.39,2.06,2.4.49,1.01.74,2.16.74,3.44s-.25,2.39-.74,3.4c-.49,1.01-1.18,1.81-2.06,2.4-.88.59-1.91.88-3.08.88s-2.16-.29-3.04-.88M238.12,31.4c-.45.47-.68,1.05-.68,1.74v2.92l1.44-.52c0-.37-.19-.83-.58-1.38-.39-.55-.93-1.09-1.64-1.62-.71-.53-1.54-.97-2.5-1.32-.96-.35-2.01-.52-3.16-.52-1.79,0-3.41.47-4.88,1.42-1.47.95-2.63,2.25-3.5,3.92-.87,1.67-1.3,3.59-1.3,5.78s.43,4.07,1.3,5.74c.87,1.67,2.05,2.97,3.54,3.92,1.49.95,3.16,1.42,5,1.42,1.01,0,1.95-.17,2.82-.5.87-.33,1.62-.74,2.26-1.22.64-.48,1.15-.97,1.52-1.46.37-.49.56-.91.56-1.26l-.88-.36v1.96c0,.69.23,1.27.68,1.74.45.47,1.03.7,1.72.7s1.27-.23,1.72-.7c.45-.47.68-1.05.68-1.74v-16.92c0-.72-.23-1.31-.68-1.76-.45-.45-1.03-.68-1.72-.68s-1.27.23-1.72.7M207.29,31.12c-.77.28-1.47.65-2.08,1.1-.61.45-1.15.94-1.6,1.46-.45.52-.8,1.01-1.04,1.46l.6.12v-1.72c0-.69-.23-1.27-.68-1.74-.45-.47-1.03-.7-1.72-.7s-1.27.23-1.72.7c-.45.47-.68,1.05-.68,1.74v16.52c0,.69.23,1.27.68,1.74.45.47,1.03.7,1.72.7s1.27-.23,1.72-.7c.45-.47.68-1.05.68-1.74v-10.24c0-.88.19-1.67.58-2.38.39-.71.95-1.27,1.68-1.7.73-.43,1.63-.64,2.7-.64s1.93.21,2.52.64c.59.43.99.99,1.22,1.7.23.71.34,1.5.34,2.38v10.24c0,.69.23,1.27.68,1.74.45.47,1.03.7,1.72.7s1.27-.23,1.72-.7c.45-.47.68-1.05.68-1.74v-10.24c0-1.68-.19-3.21-.58-4.58-.39-1.37-1.09-2.47-2.12-3.3-1.03-.83-2.53-1.24-4.5-1.24-.91,0-1.75.14-2.52.42M192.65,28.08c.4-.28.6-.81.6-1.58v-.76c0-.75-.19-1.27-.56-1.56-.37-.29-1.03-.44-1.96-.44-.85,0-1.49.14-1.9.42-.41.28-.62.81-.62,1.58v.76c0,.75.19,1.27.56,1.56.37.29,1.01.44,1.92.44s1.56-.14,1.96-.42M193.13,33.54c0-.69-.23-1.27-.68-1.74-.45-.47-1.03-.7-1.72-.7s-1.27.23-1.72.7c-.45.47-.68,1.05-.68,1.74v16.52c0,.69.23,1.27.68,1.74.45.47,1.03.7,1.72.7s1.27-.23,1.72-.7c.45-.47.68-1.05.68-1.74v-16.52ZM160.27,31.12c-.75.28-1.43.65-2.04,1.1-.61.45-1.13.94-1.56,1.46-.43.52-.76,1.01-1,1.46l.6.12v-1.72c0-.69-.23-1.27-.68-1.74-.45-.47-1.03-.7-1.72-.7s-1.27.23-1.72.7c-.45.47-.68,1.05-.68,1.74v16.52c0,.69.23,1.27.68,1.74.45.47,1.03.7,1.72.7s1.27-.23,1.72-.7c.45-.47.68-1.05.68-1.74v-10.24c0-.88.18-1.67.54-2.38.36-.71.9-1.27,1.62-1.7.72-.43,1.59-.64,2.6-.64s1.84.21,2.4.64c.56.43.95.99,1.16,1.7.21.71.32,1.5.32,2.38v10.24c0,.69.23,1.27.68,1.74.45.47,1.03.7,1.72.7s1.27-.23,1.72-.7c.45-.47.68-1.05.68-1.74v-10.24c0-.88.18-1.67.54-2.38.36-.71.9-1.27,1.62-1.7.72-.43,1.59-.64,2.6-.64s1.84.21,2.4.64c.56.43.95.99,1.16,1.7.21.71.32,1.5.32,2.38v10.24c0,.69.23,1.27.68,1.74.45.47,1.03.7,1.72.7s1.27-.23,1.72-.7c.45-.47.68-1.05.68-1.74v-10.24c0-1.68-.19-3.21-.56-4.58-.37-1.37-1.06-2.47-2.06-3.3-1-.83-2.46-1.24-4.38-1.24-1.17,0-2.23.25-3.18.74-.95.49-1.75,1.09-2.42,1.8-.67.71-1.16,1.37-1.48,1.98l-.32.64.68.36c-.32-1.63-.99-2.95-2-3.98-1.01-1.03-2.59-1.54-4.72-1.54-.88,0-1.69.14-2.44.42M142.06,31.8c-.45.47-.68,1.05-.68,1.74v10.16c0,1.63-.36,2.83-1.08,3.62-.72.79-1.81,1.18-3.28,1.18s-2.52-.39-3.24-1.18c-.72-.79-1.08-1.99-1.08-3.62v-10.16c0-.69-.23-1.27-.68-1.74-.45-.47-1.03-.7-1.72-.7s-1.27.23-1.72.7c-.45.47-.68,1.05-.68,1.74v10.16c0,2.83.78,5.07,2.34,6.72,1.56,1.65,3.82,2.48,6.78,2.48s5.23-.83,6.8-2.48c1.57-1.65,2.36-3.89,2.36-6.72v-10.16c0-.69-.23-1.27-.68-1.74-.45-.47-1.03-.7-1.72-.7s-1.27.23-1.72.7M122.4,25.34c0-.69-.22-1.27-.66-1.74-.44-.47-1.01-.7-1.7-.7s-1.27.23-1.74.7c-.47.47-.7,1.05-.7,1.74v24.72c0,.69.23,1.27.68,1.74.45.47,1.01.7,1.68.7s1.27-.23,1.74-.7c.47-.47.7-1.05.7-1.74v-24.72ZM111.68,28.08c.4-.28.6-.81.6-1.58v-.76c0-.75-.19-1.27-.56-1.56-.37-.29-1.03-.44-1.96-.44-.85,0-1.49.14-1.9.42-.41.28-.62.81-.62,1.58v.76c0,.75.19,1.27.56,1.56.37.29,1.01.44,1.92.44s1.56-.14,1.96-.42M112.16,33.54c0-.69-.23-1.27-.68-1.74-.45-.47-1.03-.7-1.72-.7s-1.27.23-1.72.7c-.45.47-.68,1.05-.68,1.74v16.52c0,.69.23,1.27.68,1.74.45.47,1.03.7,1.72.7s1.27-.23,1.72-.7c.45-.47.68-1.05.68-1.74v-16.52Z"/>
    <path class="st1" d="M3.54,3.54v55.58s16.75,19.6,36.35,0,36.35,0,36.35,0V3.54H3.54Z"/>
    <path class="st1" stroke-linecap="round" d="M3.66,75.17s16.75,19.6,36.35,0c19.6-19.6,36.35,0,36.35,0"/>
  </g>
</svg>