<svg width="44" height="45" viewBox="0 0 44 45" fill="none" xmlns="http://www.w3.org/2000/svg">
<path d="M13.2122 44.5832C12.0011 44.5832 10.9647 44.1527 10.1029 43.2918C9.2412 42.4309 8.80961 41.3947 8.80814 40.1832C8.80667 38.9717 9.23827 37.9363 10.1029 37.0768C10.9676 36.2173 12.004 35.7861 13.2122 35.7832C14.4204 35.7803 15.4575 36.2115 16.3237 37.0768C17.1898 37.9421 17.6207 38.9776 17.6163 40.1832C17.6119 41.3888 17.181 42.425 16.3237 43.2918C15.4664 44.1586 14.4292 44.5891 13.2122 44.5832ZM35.2326 44.5832C34.0214 44.5832 32.985 44.1527 32.1233 43.2918C31.2616 42.4309 30.83 41.3947 30.8285 40.1832C30.827 38.9717 31.2586 37.9363 32.1233 37.0768C32.9879 36.2173 34.0244 35.7861 35.2326 35.7832C36.4407 35.7803 37.4779 36.2115 38.344 37.0768C39.2102 37.9421 39.641 38.9776 39.6366 40.1832C39.6322 41.3888 39.2014 42.425 38.344 43.2918C37.4867 44.1586 36.4495 44.5891 35.2326 44.5832ZM9.24854 4.98325H41.7286C42.5727 4.98325 43.2149 5.35945 43.6553 6.11184C44.0957 6.86424 44.1141 7.62471 43.7104 8.39324L35.8932 22.4732C35.4895 23.2066 34.9485 23.7749 34.2703 24.1782C33.592 24.5816 32.8485 24.7832 32.0396 24.7832H15.6344L13.2122 29.1832H39.6366V33.5832H13.2122C11.5607 33.5832 10.3129 32.8594 9.46875 31.4118C8.62464 29.9642 8.58793 28.5247 9.35865 27.0932L12.3314 21.7032L4.40407 4.98325H0V0.583252H7.15661L9.24854 4.98325Z" fill="black"/>
</svg>
