<?xml version="1.0" encoding="UTF-8"?>
<svg id="Layer_1" xmlns="http://www.w3.org/2000/svg" version="1.1" viewBox="0 0 50.46 66.28">
  <!-- Generator: Adobe Illustrator 29.5.1, SVG Export Plug-In . SVG Version: 2.1.0 Build 141)  -->
  <path d="M13.21,65.86c-1.21,0-2.25-.43-3.11-1.29-.86-.86-1.29-1.9-1.29-3.11,0-1.21.43-2.25,1.29-3.11.86-.86,1.9-1.29,3.11-1.29,1.21,0,2.25.43,3.11,1.29.87.87,1.3,1.9,1.29,3.11s-.44,2.24-1.29,3.11c-.86.87-1.89,1.3-3.11,1.29ZM35.23,65.86c-1.21,0-2.25-.43-3.11-1.29-.86-.86-1.29-1.9-1.29-3.11,0-1.21.43-2.25,1.29-3.11.86-.86,1.9-1.29,3.11-1.29,1.21,0,2.25.43,3.11,1.29.87.87,1.3,1.9,1.29,3.11,0,1.21-.44,2.24-1.29,3.11-.86.87-1.89,1.3-3.11,1.29ZM9.25,26.26h32.48c.84,0,1.49.38,1.93,1.13.44.75.46,1.51.06,2.28l-7.82,14.08c-.4.73-.94,1.3-1.62,1.7-.68.4-1.42.6-2.23.6H15.63l-2.42,4.4h26.42v4.4H13.21c-1.65,0-2.9-.72-3.74-2.17-.84-1.45-.88-2.89-.11-4.32l2.97-5.39-7.93-16.72H0v-4.4h7.16l2.09,4.4Z"/>
  <g>
    <path d="M26.94,14.71c.46-.46.7-1.07.72-1.7V2.35c-.03-1.33-1.12-2.38-2.45-2.35-1.29.03-2.33,1.07-2.37,2.37v10.66c.02,1.34,1.12,2.42,2.45,2.38.61,0,1.21-.26,1.63-.68l.02-.02Z"/>
    <path d="M14.75,17.77c1.02-.85,1.14-2.37.29-3.39l-6.84-8.17c-.85-1.02-2.38-1.16-3.4-.31-1.02.85-1.14,2.37-.29,3.39l6.86,8.19c.85,1.02,2.37,1.14,3.39.29Z"/>
    <path d="M35.72,17.77c1.02.85,2.54.73,3.39-.29l6.84-8.17c.85-1.02.73-2.54-.29-3.39-1.02-.85-2.54-.73-3.39.29l-6.84,8.17c-.85,1.02-.73,2.54.29,3.39Z"/>
  </g>
</svg>